<?xml version="1.0" standalone="no"?><!DOCTYPE svg PUBLIC "-//W3C//DTD SVG 1.1//EN" "http://www.w3.org/Graphics/SVG/1.1/DTD/svg11.dtd"><svg t="1704205584036" class="icon" viewBox="0 0 1024 1024" version="1.1" xmlns="http://www.w3.org/2000/svg" p-id="7442" xmlns:xlink="http://www.w3.org/1999/xlink" width="128" height="128"><path d="M904 1024H120c-66.168 0-120-53.832-120-120V120C0 53.832 53.832 0 120 0h784c66.168 0 120 53.832 120 120v784c0 66.168-53.832 120-120 120zM120 4C56.038 4 4 56.038 4 120v784c0 63.962 52.038 116 116 116h784c63.962 0 116-52.038 116-116V120c0-63.962-52.038-116-116-116H120z" fill="#D8DDE3" p-id="7443"></path><path d="M268 772h480v60H268z" fill="#20263B" p-id="7444"></path><path d="M752 704H272c-44.112 0-80-35.888-80-80V272c0-44.112 35.888-80 80-80h480c44.112 0 80 35.888 80 80v352c0 44.112-35.888 80-80 80zM272 252c-11.028 0-20 8.972-20 20v352c0 11.028 8.972 20 20 20h480c11.028 0 20-8.972 20-20V272c0-11.028-8.972-20-20-20H272z" fill="#20263B" p-id="7445"></path><path d="M521.726 341.678l38.572 10.588L504.3 556.26l-38.572-10.588z" fill="#FF4B07" p-id="7446"></path><path d="M368.58 385.246l22.626 22.628-62.3 62.3-22.628-22.628z" fill="#FF4B07" p-id="7447"></path><path d="M329.428 425.816l62.3 62.3-22.628 22.628-62.3-62.3z" fill="#FF4B07" p-id="7448"></path><path d="M657.422 385.25l62.3 62.3-22.626 22.626-62.3-62.3z" fill="#FF4B07" p-id="7449"></path><path d="M696.58 425.82l22.624 22.632-62.308 62.29-22.624-22.63z" fill="#FF4B07" p-id="7450"></path></svg>