<?xml version="1.0" standalone="no"?><!DOCTYPE svg PUBLIC "-//W3C//DTD SVG 1.1//EN" "http://www.w3.org/Graphics/SVG/1.1/DTD/svg11.dtd"><svg t="1669697883025" class="icon" viewBox="0 0 1024 1024" version="1.1" xmlns="http://www.w3.org/2000/svg" p-id="3145" xmlns:xlink="http://www.w3.org/1999/xlink" width="128" height="128"><path d="M707.2 79.9H238.6c-11.6 0-21 9.4-21 21V923c0 11.6 9.4 21 21 21h704.9V316.3L707.2 79.9" fill="#FFFFFF" p-id="3146"></path><path d="M943.6 960h-705c-20.4 0-37-16.6-37-37V100.9c0-20.4 16.6-37 37-37h468.6c4.2 0 8.3 1.7 11.3 4.7L954.9 305c3 3 4.7 7.1 4.7 11.3V944c0 8.9-7.2 16-16 16z m-705-864.1c-2.7 0-5 2.2-5 5V923c0 2.7 2.2 5 5 5h689V323l-227-227h-462z" fill="#00365B" p-id="3147"></path><path d="M943.6 316.3H707.2V79.9z" fill="#FFFFFF" p-id="3148"></path><path d="M943.6 332.3H707.2c-8.8 0-16-7.2-16-16V79.9c0-6.5 3.9-12.3 9.9-14.8s12.9-1.1 17.4 3.5L954.9 305c4.6 4.6 5.9 11.5 3.5 17.4-2.5 6-8.3 9.9-14.8 9.9z m-220.4-32H905L723.2 118.6v181.7z" fill="#00365B" p-id="3149"></path><path d="M104.7 414.2h698.8c22.4 0 40.6 19.8 40.6 44.3v301.4c0 24.5-18.2 44.3-40.6 44.3H104.7c-22.4 0-40.6-19.8-40.6-44.3V458.5c-0.1-24.5 18.1-44.3 40.6-44.3z" fill="#E89870" p-id="3150"></path><path d="M164.4 722.3c7.3 0 14-0.9 19.9-2.6s10.9-4.5 15-8.4c4.1-3.9 7.2-9 9.3-15.4 2.1-6.4 3.2-14.2 3.2-23.4V515.8c0-4.1-1.5-7.7-4.6-11-3.1-3.3-8.2-4.9-15.3-4.9-7.1 0-12.2 1.7-15.3 5.2-3.1 3.5-4.6 7-4.6 10.7V655c0 6.1-0.1 11.3-0.2 15.4-0.1 4.2-0.6 7.5-1.4 9.9-0.8 2.4-2.1 4.2-3.8 5.4s-4.2 1.7-7.5 1.7c-4.1 0-7.6-1.3-10.7-3.8-3.1-2.5-6-4.9-8.9-7.2-2.7-2-5.3-3.1-7.8-3.2-2.5-0.1-4.9 0.3-7.2 1.1-2.2 0.8-4.2 1.9-5.8 3.4-1.6 1.4-2.8 2.7-3.4 3.7-2 3.3-2.8 6.5-2.3 9.8s1.8 6.3 3.8 9.2c2 2.9 4.5 5.5 7.3 8 2.9 2.4 5.7 4.5 8.6 6.1 4.7 2.9 9.5 4.9 14.4 6.1 5.1 1.1 10.8 1.7 17.3 1.7z m115.8-4.8c8.1 2.5 16.7 3.6 25.8 3.2 25.1-0.8 43.7-7.4 56-19.7 12.2-12.3 18.6-28.6 19-48.8 0.2-7.5-0.7-14.3-2.6-20.2s-5.1-11.2-9.5-15.9c-4.4-4.7-9.9-9.1-16.7-13.2-6.7-4.1-14.7-8.2-23.9-12.2-3.7-1.6-7.8-3.4-12.4-5.2-4.6-1.8-9-4.1-13.2-6.7s-7.7-5.7-10.6-9.2c-2.9-3.5-4.3-7.5-4.3-12.2 0-2.9 0.6-5.8 1.8-8.7 1.2-3 2.9-5.6 5-8 2.1-2.3 4.7-4.3 7.8-5.8 3.1-1.5 6.5-2.3 10.4-2.3 3.5 0 6.9 0.5 10.2 1.5 3.4 1 6.5 2.2 9.5 3.7 3 1.4 5.8 3 8.4 4.7 2.7 1.7 5 3.3 7 4.7 1.4 1.2 3.3 2 5.5 2.4 2.2 0.4 4.5 0.4 6.9-0.2 2.3-0.5 4.6-1.4 6.7-2.8 2.1-1.3 3.9-3.1 5.4-5.4 2.7-4.5 3-9.2 1.1-14.2s-5.6-9.6-11-13.9c-5.4-4.3-12.2-7.9-20.3-10.7-8.2-2.9-17-4.4-26.6-4.6-8.6-0.2-17 0.9-25.2 3.4-8.3 2.4-15.7 6.1-22.2 11s-11.8 11.1-15.8 18.5-6 16.1-6 25.8c0 9.2 1.6 17.1 4.9 23.9 3.3 6.7 7.6 12.5 13.2 17.4 5.5 4.9 12 9.1 19.4 12.7 7.4 3.6 15.4 6.9 24 9.9 3.1 1 6.5 2.4 10.2 4.3 3.8 1.8 7.2 4.1 10.4 6.9 3.2 2.8 5.9 6 8.1 9.6 2.2 3.7 3.4 8 3.4 12.8 0 5.1-0.9 9.6-2.8 13.6-1.8 4-4.3 7.3-7.3 9.9-3.1 2.7-6.6 4.7-10.6 6.1-4 1.4-8 2.1-12.1 2.1-4.9 0-9.4-0.6-13.6-1.8-4.2-1.2-8.2-2.8-11.9-4.7-3.8-1.9-7.3-4.1-10.7-6.4-3.4-2.3-6.6-4.5-9.6-6.6-3.5-2.2-7.2-3.1-11.2-2.6-4 0.5-7.4 3-10.2 7.5-1.6 2.2-2.5 5-2.6 8.3-0.1 3.3 0.6 6.6 2 10.1s3.7 6.9 6.9 10.2c3.2 3.4 7.4 6.4 12.7 9 6.1 3.5 13.1 6.3 21.2 8.8z m216.7 4.8c16.5 0 30.8-2.9 43-8.7 12.1-5.8 22.2-13.8 30.1-23.9 8-10.1 13.9-22 17.7-35.8 3.9-13.8 5.8-28.6 5.8-44.5 0-15.9-1.9-30.7-5.8-44.4s-9.8-25.5-17.7-35.6c-8-10.1-18-18-30.1-23.9-12.1-5.8-26.5-8.7-43-8.7-17.1 0-31.8 2.9-43.9 8.7s-22.1 13.8-30 23.9c-7.9 10.1-13.6 22-17.3 35.8-3.7 13.8-5.5 28.5-5.5 44.2 0 16.3 2 31.4 6.1 45.3s10.2 25.8 18.4 35.8c8.2 10 18.3 17.8 30.3 23.4 12 5.6 26 8.4 41.9 8.4z m0-34.9c-10.8 0-19.8-2.2-27.1-6.7-7.2-4.5-13.1-10.4-17.6-17.7-4.5-7.3-7.6-15.7-9.5-25.1-1.8-9.4-2.8-18.9-2.8-28.4 0-10.6 1-20.6 3.1-30 2-9.4 5.3-17.6 9.8-24.6 4.5-7 10.3-12.6 17.6-16.8 7.2-4.2 16.1-6.3 26.5-6.3s19.2 2 26.5 6.1 13.1 9.7 17.6 16.8 7.7 15.5 9.8 25.1c2 9.6 3.1 19.8 3.1 30.6s-0.9 20.9-2.8 30.3c-1.8 9.4-5 17.5-9.5 24.5-4.5 6.9-10.3 12.4-17.6 16.4-7.3 3.8-16.3 5.8-27.1 5.8z m281.4 31.8c7.1 0 11.7-1.4 13.8-4.3 2-2.9 3.1-6 3.1-9.5V515.8c0-4.1-1.5-7.7-4.6-11-3.1-3.3-8.2-4.9-15.3-4.9-7.1 0-12.2 1.7-15.3 5.2-3.1 3.5-4.6 7-4.6 10.7v125.1l-96.7-130c-1.8-2.4-4-4.9-6.6-7.3-2.5-2.4-5.9-3.7-9.9-3.7-7.3 0-12 1.5-14.1 4.4-2 3-3.1 6.3-3.1 9.9v189c0 3.7 1.5 7.2 4.6 10.7 3.1 3.5 8.2 5.2 15.3 5.2 7.1 0 12.2-1.6 15.3-4.9s4.6-6.9 4.6-11V582.5l96.4 125.7c1.8 2.4 4.1 4.9 6.9 7.3 2.7 2.5 6.1 3.7 10.2 3.7z" fill="#FFFFFF" p-id="3151"></path></svg>