<?xml version="1.0" standalone="no"?><!DOCTYPE svg PUBLIC "-//W3C//DTD SVG 1.1//EN" "http://www.w3.org/Graphics/SVG/1.1/DTD/svg11.dtd"><svg t="1684236292010" class="icon" viewBox="0 0 1024 1024" version="1.1" xmlns="http://www.w3.org/2000/svg" p-id="1955" xmlns:xlink="http://www.w3.org/1999/xlink" width="128" height="128"><path d="M22.224165 488.189289s128.566101 13.037558 163.410253 20.785858c37.859956 8.537049 75.719913 17.074098 113.811854 24.544016 11.645648 2.273453 23.198503 4.407715 35.029739 6.634772 2.969408 3.386981 7.145139-0.742352 10.253738 1.438307a57.532286 57.532286 0 0 1 8.629843 33.545035c-0.556764 4.639701 2.412644 9.650577 1.948674 14.800644-0.556764 8.258667-2.227056 10.53212-9.882562 12.944765a12.712779 12.712779 0 0 0-4.03654 1.39191 126.988603 126.988603 0 0 1-42.824435 16.331746 623.714941 623.714941 0 0 1-155.24438 37.535177 106.156348 106.156348 0 0 0-10.53212 1.995071 52.011043 52.011043 0 0 0-11.645648 3.665364 33.127462 33.127462 0 0 0-20.646668 42.12848c0 0.649558 0.46397 1.345513 0.695955 1.948675a80.916377 80.916377 0 0 0 36.189664 42.360465c2.366247 1.577498 5.474847 2.041468 6.402787 5.335656a6.773963 6.773963 0 0 0 0.278382 5.567641 91.4021 91.4021 0 0 0 39.530249 43.659582 59.666549 59.666549 0 0 0 47.046563 1.577498 379.481106 379.481106 0 0 0 97.433711-53.217365c20.414682-14.522263 40.550983-29.462098 59.573755-45.793844a184.938463 184.938463 0 0 0 22.873723-23.198503c1.345513-1.577498 2.087865-4.639701 5.474847-3.24779 1.85588 6.263596-2.691026 10.346532-5.660435 14.800644a48.0209 48.0209 0 0 1-10.160944 10.114547c-4.082936 3.479775-6.263596 7.28433-2.459041 12.480795a9.279401 9.279401 0 0 1 1.670292 6.82036 38.231132 38.231132 0 0 0 7.423521 28.209379 19.857918 19.857918 0 0 1 1.484704 19.904315 1030.431089 1030.431089 0 0 0-103.558116 77.436602 179.973983 179.973983 0 0 0-21.110637 20.739461 16.934907 16.934907 0 0 0-1.531101 23.848061l0.788749 0.835146c1.995071 2.691026 4.268524 5.242862 6.495581 7.794697a39.112675 39.112675 0 0 1-0.78875 55.30523 35.493709 35.493709 0 0 1-3.618966 3.154996 534.818279 534.818279 0 0 1-88.943059 60.316107c-12.805573 7.191536-25.518353 14.522263-38.045544 22.177769-3.943745 2.412644-4.639701 1.902277-8.119476-1.206323a331.831381 331.831381 0 0 1-127.452573-260.472787z" fill="#FABB00" p-id="1956"></path><path d="M408.340043 773.252489c-0.603161-5.660435-0.974337-11.413663-1.623895-17.074098a3.850951 3.850951 0 0 0-0.92794-2.551835 27.838203 27.838203 0 0 1-8.026682-28.858937 8.67624 8.67624 0 0 0-1.670292-6.031611 9.279401 9.279401 0 0 1 0.974337-13.362338 8.954622 8.954622 0 0 1 2.041468-1.39191 36.236061 36.236061 0 0 0 16.378143-23.198502c-0.974337-2.551835-2.134262-3.24779-4.639701-1.345514a733.443858 733.443858 0 0 1-105.877966 55.954789 489.905978 489.905978 0 0 1-64.955807 24.868795 140.861308 140.861308 0 0 1-29.694083 5.938816 6.217199 6.217199 0 0 1-6.495581-1.85588c2.134262-6.35639 8.073079-7.191536 13.31594-8.861828a7.423521 7.423521 0 0 0 6.541978-8.119476v-1.113528c-0.788749-7.28433-0.556764-14.661454-8.537049-18.558802a4.96448 4.96448 0 0 1-2.087865-3.618967 36.328855 36.328855 0 0 0-8.861828-20.1363 8.026682 8.026682 0 0 1-1.438307-6.217199 53.959717 53.959717 0 0 0-4.129334-20.321888 8.629843 8.629843 0 0 0-4.17573-5.706831 11.599251 11.599251 0 0 1-5.289259-6.681169c-1.995071-5.799626-6.309993-6.82036-12.016824-6.402787-12.202412 0.835146-24.451222 2.041468-36.746428 2.180659a9.975356 9.975356 0 0 1-8.165873-1.995071 70.662639 70.662639 0 0 1 25.147177-4.082936 700.594779 700.594779 0 0 0 98.732827-21.899387c11.506457-3.572569 23.198503-7.701903 34.380181-11.970427a173.385609 173.385609 0 0 1 34.148196-9.789768 20.553873 20.553873 0 0 0 9.650577-4.639701 21.99218 21.99218 0 0 1 11.970427-5.892419c5.660435-0.371176 7.191536-4.639701 7.330727-9.650578 0-8.908225-2.737423-17.120495-2.273453-25.982322a19.440345 19.440345 0 0 0-5.010877-15.171821c-2.134262-2.180659-1.345513-5.474847-1.206322-8.305064 20.321888 2.227056 40.550983 5.103671 60.872871 6.495581a238.619798 238.619798 0 0 0 88.15431-5.057274 38.695102 38.695102 0 0 0 24.265633-16.842113 25.889529 25.889529 0 0 0-16.470937-39.298263 65.744556 65.744556 0 0 0-24.265633-0.974337 320.974482 320.974482 0 0 1-98.547239-2.319851 86.530415 86.530415 0 0 1-42.221275-18.929978 37.117604 37.117604 0 0 1 4.6397-60.872871 144.619465 144.619465 0 0 1 59.80574-19.718727c13.269543-1.995071 26.585484-2.969408 39.855028-4.6397 3.618966-2.041468 7.516315-0.603161 11.367266-0.649558a697.857355 697.857355 0 0 1 153.110117 17.770053c9.279401 1.902277 18.326817 3.990142 27.374233 6.356389 1.020734 0 1.299116 0.556764 1.484704 1.345513-0.46397 5.382053-4.639701 4.639701-7.980285 4.639701a94.742685 94.742685 0 0 1-16.981303-2.691026c-4.639701-1.438307-5.938817 0.510367-4.175731 4.6397a51.871852 51.871852 0 0 1 3.711761 19.533139c0 6.495581 4.639701 11.877633 5.753228 18.558802a12.480794 12.480794 0 0 1-2.923011 7.887491 36.421649 36.421649 0 0 0 21.621004 55.258834 20.925049 20.925049 0 0 1 2.691027 1.020734 22.224165 22.224165 0 0 0 10.160944 3.015805 3.572569 3.572569 0 0 1 3.850951 2.691026c0.510367 2.041468-1.159925 3.108599-2.691026 3.618967-5.474847 1.763086-5.799626 5.614038-4.639701 10.300135a26.214308 26.214308 0 0 1 0.510367 8.629843 13.31594 13.31594 0 0 0 6.263596 13.547925 6.217199 6.217199 0 0 1 3.108599 8.21227l-0.371176 0.649558a23.616076 23.616076 0 0 0-1.995071 14.522263 226.602973 226.602973 0 0 0 55.954788 59.434564c2.366247 1.763086 4.918083 3.897348 4.639701 7.005947s-4.222127 4.129333-7.377124 4.639701a838.904251 838.904251 0 0 0-84.999313 22.177769A904.416823 904.416823 0 0 0 423.790246 764.529852c-4.871686 3.062202-9.882562 5.846023-14.800645 8.861828z" fill="#FCC800" p-id="1957"></path><path d="M650.207631 577.921097c-1.902277-4.639701-5.753229-8.258667-0.278382-13.31594a5.150068 5.150068 0 0 0-1.85588-8.861828 11.506457 11.506457 0 0 1-6.681169-12.991162 22.920121 22.920121 0 0 0 0-7.841094c-1.995071-7.655506-3.294187-14.615057 8.861828-15.542997-5.289259-2.505438-10.856899-1.206322-14.475865-5.150067 3.294187-3.015805 7.655506-1.85588 11.413663-2.923011a30.622023 30.622023 0 0 0 20.321888-15.264615 31.317979 31.317979 0 0 0 5.382053-19.347551 33.730623 33.730623 0 0 0-31.503567-35.911282 32.477904 32.477904 0 0 0-5.150067 0 35.308121 35.308121 0 0 0-14.754248 5.289258c-2.273453 1.159925-4.129333 3.479775-7.052345 3.154997-4.639701-2.923011-4.639701-8.537049-5.799626-12.619986-3.154996-9.975356-2.923011-20.832255-6.402786-31.039596-1.159925-3.386981 3.526172-3.062202 5.753228-2.041469a87.829531 87.829531 0 0 0 17.445274 3.386982c3.015805 0.788749 6.773963 1.299116 8.861828-2.64463a399.014245 399.014245 0 0 0 39.391058 11.367267 937.219505 937.219505 0 0 1 203.358074 85.556077l1.623895 1.391911a37.674368 37.674368 0 0 0 5.335655 24.822397 190.970073 190.970073 0 0 1 18.558803 48.206489 49.830384 49.830384 0 0 1 0 30.297244 46.397005 46.397005 0 0 1-34.844151 20.229094 750.425162 750.425162 0 0 1-80.777186 9.789769 125.271914 125.271914 0 0 1-56.697141-11.552855 330.161089 330.161089 0 0 1-64.677425-37.674368c-0.649558-6.124405-4.639701-7.980285-9.928959-7.237933-1.85588-0.649558-3.479775-2.041468-5.614038-1.577498z" fill="#FED000" p-id="1958"></path><path d="M632.623166 402.865196a5.521244 5.521244 0 0 1-6.078008 1.020734 722.818944 722.818944 0 0 0-92.190849-17.213289 511.57338 511.57338 0 0 0-85.880857-5.56764 25.843132 25.843132 0 0 1-7.655505-1.438307 68.853156 68.853156 0 0 1-24.265634-38.091942 48.763252 48.763252 0 0 1 43.334803-53.727732 49.73759 49.73759 0 0 1 7.237933 0 130.932349 130.932349 0 0 1 61.151252 25.750338 645.196755 645.196755 0 0 1 96.737756 79.849246c2.78382 2.876614 5.103671 6.263596 7.609109 9.279401z" fill="#F8B700" p-id="1959"></path><path d="M902.560943 605.898491a142.577997 142.577997 0 0 0-20.832256-78.039763 85.092108 85.092108 0 0 1-5.521243-14.847041c-1.020734-3.526172-2.087865-7.701903 2.134262-10.439326a100.171134 100.171134 0 0 1 40.2726 24.404824 31.317979 31.317979 0 0 1 8.629843 29.13732 109.728917 109.728917 0 0 1-24.729603 49.830383z" fill="#47270D" p-id="1960"></path><path d="M655.636081 579.637786c2.923011-7.377124 5.985214 0 8.629843 0.371176 3.572569 0.603161 4.639701 3.850951 1.299116 6.866757a39.019881 39.019881 0 0 1-9.928959-7.237933z m-310.859935-37.859956c-3.154996-2.087865-7.7483 5.242862-10.300135-1.438307a19.997109 19.997109 0 0 1 10.253738 1.39191z" fill="#FCC800" p-id="1961"></path><path d="M131.860289 658.930268a395.859249 395.859249 0 0 0 47.324945-2.691026 9.696974 9.696974 0 0 1 11.181678 6.866757c0.742352 1.902277 0 4.639701 2.319851 5.753228 11.181678 5.567641 9.928959 16.610128 11.320869 26.260705 0.695955 4.639701 0.371176 8.397858 4.6397 11.78484s4.129333 9.836165 5.335656 15.17182c0.46397 2.041468 0 4.639701 2.691026 5.335656 6.541978 1.531101 7.7483 6.309993 7.701903 12.016824a19.069169 19.069169 0 0 0 0.742352 4.175731c1.763086 8.537049-0.510367 13.64072-10.346532 14.522262a14.615057 14.615057 0 0 0-10.810502 6.495581 4.639701 4.639701 0 0 1-3.340584 1.299116c-7.609109-0.649558-15.125424 1.299116-22.734533 0.695955a93.443569 93.443569 0 0 1-29.27651-6.078007c-2.227056-0.881543-5.42845-1.067131-5.567641-4.639701a105.692378 105.692378 0 0 1-30.714817-24.404825 57.717874 57.717874 0 0 1-15.450203-36.328855 38.509514 38.509514 0 0 1 34.70496-36.282458z" fill="#FED000" p-id="1962"></path><path d="M143.366746 755.992803a85.83446 85.83446 0 0 0 34.797754 8.861828 88.711074 88.711074 0 0 0 23.198503 0h2.830217a129.21566 129.21566 0 0 0 38.648705-7.28433c16.610128-5.938817 33.77702-10.717708 49.783987-18.002038 11.692045-5.289259 23.616076-10.439326 34.890548-16.702922 18.558802-10.300135 38.695102-17.723656 56.975522-28.626952a177.561339 177.561339 0 0 0 26.585484-17.306083c1.345513-1.113528 3.062202-3.572569 4.639701-2.459041 2.598232 1.763086 0.556764 4.639701-0.324779 6.541978a269.10263 269.10263 0 0 1-56.325965 51.964645 691.918539 691.918539 0 0 1-76.415867 52.150234 266.458001 266.458001 0 0 1-44.819507 20.693065 90.659748 90.659748 0 0 1-29.926069 6.773962 62.403972 62.403972 0 0 1-47.55693-23.198502 118.82273 118.82273 0 0 1-18.558802-28.162982c-1.159925-2.412644-2.644629-4.407715 1.39191-5.196465z" fill="#F6A100" p-id="1963"></path><path d="M669.462388 495.520016a33.823417 33.823417 0 0 1-33.962608 18.558802 38.045544 38.045544 0 0 1-31.410772-43.798773 32.477904 32.477904 0 0 1 1.39191-5.660435 51.036706 51.036706 0 0 1 8.861828-15.589393 35.215327 35.215327 0 0 1 49.783987-0.463971 34.751357 34.751357 0 0 1 9.882562 18.280421 61.847208 61.847208 0 0 1 0.695955 10.717708c-3.062202-0.881543-3.154996-3.990142-4.639701-6.170802a17.677259 17.677259 0 0 0-23.569678-8.490652 20.832255 20.832255 0 0 0-8.861828 27.838203 18.28042 18.28042 0 0 0 24.080045 7.980285c2.551835-1.159925 4.639701-3.572569 7.7483-3.479775z" fill="#FEFEFD" p-id="1964"></path><path d="M669.462388 495.520016a19.67233 19.67233 0 0 1-23.523281 5.660434 21.249828 21.249828 0 0 1-12.666383-20.878652 20.925049 20.925049 0 0 1 13.315941-19.625933c11.92403-4.639701 22.734533 1.809483 27.838203 17.074098a27.049454 27.049454 0 0 1-5.196465 17.723656z" fill="#48270D" p-id="1965"></path><path d="M201.177415 764.622646a40.643777 40.643777 0 0 1-23.198503 0c7.887491 1.438307 15.682188-2.737423 23.198503 0z" fill="#FCC800" p-id="1966"></path><path d="M762.117208 1005.93347H243.955453A244.280232 244.280232 0 0 1 0 762.024414V243.816262A244.233835 244.233835 0 0 1 243.955453-0.092794h518.161755a244.187438 244.187438 0 0 1 243.955453 243.909056v518.208152a244.233835 244.233835 0 0 1-243.955453 243.909056zM243.955453 44.216346a199.785504 199.785504 0 0 0-199.507122 199.507122v518.208152a199.785504 199.785504 0 0 0 199.507122 199.507122h518.161755a199.739107 199.739107 0 0 0 199.507122-199.507122V243.723468a199.739107 199.739107 0 0 0-199.507122-199.507122z" fill="#DBDEE5" p-id="1967"></path></svg>