<?xml version="1.0" standalone="no"?><!DOCTYPE svg PUBLIC "-//W3C//DTD SVG 1.1//EN" "http://www.w3.org/Graphics/SVG/1.1/DTD/svg11.dtd"><svg t="1674199926402" class="icon" viewBox="0 0 1024 1024" version="1.1" xmlns="http://www.w3.org/2000/svg" p-id="5431" xmlns:xlink="http://www.w3.org/1999/xlink" width="128" height="128"><path d="M853.333333 938.666667H170.666667a85.333333 85.333333 0 0 1-85.333334-85.333334V170.666667a85.333333 85.333333 0 0 1 85.333334-85.333334h682.666666a85.333333 85.333333 0 0 1 85.333334 85.333334v682.666666a85.333333 85.333333 0 0 1-85.333334 85.333334zM170.666667 874.666667h682.666666a21.333333 21.333333 0 0 0 21.333334-21.333334v-212.181333l-111.957334-113.066667a53.098667 53.098667 0 0 0-75.434666 0l-190.954667 192.789334a53.333333 53.333333 0 0 1-76.010667 0l-73.621333-74.325334a53.056 53.056 0 0 0-75.434667 0L149.333333 769.664V853.333333a21.333333 21.333333 0 0 0 21.333334 21.333334zM853.333333 149.333333H170.666667a21.333333 21.333333 0 0 0-21.333334 21.333334v507.733333l76.672-77.397333a116.501333 116.501333 0 0 1 165.930667 0l66.368 66.986666 183.701333-185.450666a116.693333 116.693333 0 0 1 165.952 0L874.666667 549.802667V170.666667a21.333333 21.333333 0 0 0-21.333334-21.333334z" fill="#333333" p-id="5432"></path><path d="M320 320m-64 0a64 64 0 1 0 128 0 64 64 0 1 0-128 0Z" fill="#FF9C00" p-id="5433"></path></svg>