<?xml version="1.0" standalone="no"?><!DOCTYPE svg PUBLIC "-//W3C//DTD SVG 1.1//EN" "http://www.w3.org/Graphics/SVG/1.1/DTD/svg11.dtd"><svg t="1710207603812" class="icon" viewBox="0 0 1024 1024" version="1.1" xmlns="http://www.w3.org/2000/svg" p-id="7009" xmlns:xlink="http://www.w3.org/1999/xlink" width="128" height="128"><path d="M512.133564 0a511.9925 511.9925 0 1 0 511.866455 511.9925A511.9925 511.9925 0 0 0 512.133564 0z m-44.745775 331.748956H287.270289l0.756267 359.604777h179.361233v44.745775h-224.359097V287.633404h224.359097zM533.813207 781.475505h-44.115553V242.887629h44.115553z m68.19004-45.249952h-44.115553v-44.115553h44.115553z m0-403.342197h-44.115553V288.641759h44.115553z m89.743638 403.342197h-44.115552v-44.115553h44.115552z m0-403.342197h-44.115552V288.641759h44.115552z m89.239461 403.342197h-44.115553v-44.115553H781.616568z m0-89.617595h-44.115553v-44.115552H781.616568z m0-89.617594h-44.115553v-89.617594H781.616568z m0-134.867547h-44.115553V378.133309H781.616568z m0-88.987372h-44.115553V288.641759H781.616568z" fill="#DB0F0F" p-id="7010"></path></svg>