<?xml version="1.0" standalone="no"?><!DOCTYPE svg PUBLIC "-//W3C//DTD SVG 1.1//EN" "http://www.w3.org/Graphics/SVG/1.1/DTD/svg11.dtd"><svg t="1692278591798" class="icon" viewBox="0 0 1024 1024" version="1.1" xmlns="http://www.w3.org/2000/svg" p-id="10273" xmlns:xlink="http://www.w3.org/1999/xlink" width="48" height="48"><path d="M853.3 0H170.7C108.1 0 56.9 51.2 56.9 113.8v796.4c0 62.6 51.2 113.8 113.8 113.8h682.7c62.6 0 113.8-51.2 113.8-113.8V113.8C967.1 51.2 915.9 0 853.3 0z m56.9 910.2c0 31.4-25.5 56.9-56.9 56.9H170.7c-31.4 0-56.9-25.5-56.9-56.9V113.8c0-31.4 25.5-56.9 56.9-56.9h682.7c31.4 0 56.9 25.5 56.9 56.9v796.4z" fill="#878895" p-id="10274"></path><path d="M284.4 568.9h568.9v56.9H284.4zM170.7 682.7h682.7v56.9H170.7zM170.7 796.4h682.7v56.9H170.7zM227.6 455.1h56.8V227.6h56.9v-56.9H170.7v56.9h56.9zM682.7 227.6h56.9v227.5h56.8V227.6h56.9v-56.9H682.7zM449.4 443.7l62.6-83.4 62.6 83.4 45.5-34.1-72.5-96.7 72.5-96.7-45.5-34.1-62.6 83.4-62.6-83.4-45.5 34.1 72.5 96.7-72.5 96.7z" fill="#878895" p-id="10275"></path></svg>