<?xml version="1.0" standalone="no"?><!DOCTYPE svg PUBLIC "-//W3C//DTD SVG 1.1//EN" "http://www.w3.org/Graphics/SVG/1.1/DTD/svg11.dtd"><svg t="1704048747179" class="icon" viewBox="0 0 1039 1024" version="1.1" xmlns="http://www.w3.org/2000/svg" p-id="12773" xmlns:xlink="http://www.w3.org/1999/xlink" width="129.875" height="128"><path d="M539.962335 944.934087c-233.340866 0-424.256121-190.915254-424.25612-424.256121s190.915254-424.256121 424.25612-424.25612 424.256121 190.915254 424.256121 424.25612c0 235.269303-190.915254 424.256121-424.256121 424.256121z m0-771.374765c-190.915254 0-347.118644 156.20339-347.118644 347.118644s156.20339 347.118644 347.118644 347.118644 347.118644-156.20339 347.118644-347.118644-156.20339-347.118644-347.118644-347.118644z" fill="#388CEB" p-id="12774"></path><path d="M694.237288 597.815443h-192.843691c-21.212806 0-38.568738-17.355932-38.568738-38.568739v-231.412429c0-21.212806 17.355932-38.568738 38.568738-38.568738s38.568738 17.355932 38.568738 38.568738v192.843691h154.274953c21.212806 0 38.568738 17.355932 38.568738 38.568738s-17.355932 38.568738-38.568738 38.568739z" fill="#E78E00" p-id="12775"></path></svg>