<?xml version="1.0" standalone="no"?><!DOCTYPE svg PUBLIC "-//W3C//DTD SVG 1.1//EN" "http://www.w3.org/Graphics/SVG/1.1/DTD/svg11.dtd"><svg t="1708161611062" class="icon" viewBox="0 0 1024 1024" version="1.1" xmlns="http://www.w3.org/2000/svg" p-id="8738" xmlns:xlink="http://www.w3.org/1999/xlink" width="128" height="128"><path d="M421.521313 648.405693c18.650779 11.498892 41.537022 11.190877 59.920717-0.808412l112.407116-73.249281 9.981329-6.762007c17.901719-11.725042 28.852118-32.813337 28.852118-55.56655s-10.949376-43.841507-28.852118-55.56655l-122.32807-80.011288c-18.386766-12.032034-41.295522-12.359492-59.965743-0.855484-18.670222 11.502985-30.214139 33.05893-30.218232 56.423057v160.022576c0.016373 23.342638 11.552104 44.874023 30.202883 56.373939z" fill="#34BC6E" p-id="8739"></path><path d="M898.182456 125.817544H125.817544c-26.660196 0-48.272423 21.612227-48.272424 48.272423v675.819043c0 26.660196 21.612227 48.272423 48.272424 48.272423h772.364912c26.660196 0 48.272423-21.612227 48.272424-48.272423V174.089967c0-26.660196-21.612227-48.272423-48.272424-48.272423z m-48.273446 144.818293h-48.272424c-26.660196 0-48.272423 21.612227-48.272423 48.272423s21.612227 48.272423 48.272423 48.272423h48.272424v96.54587h-48.272424c-26.660196 0-48.272423 21.612227-48.272423 48.272424s21.612227 48.272423 48.272423 48.272423h48.272424v96.54587h-48.272424c-26.660196 0-48.272423 21.612227-48.272423 48.272423s21.612227 48.272423 48.272423 48.272423h48.272424v48.272424H174.089967v-579.273173h675.819043v48.27447z" fill="#34BC6E" p-id="8740"></path></svg>